<svg width="36" height="36" viewBox="0 0 36 36" fill="none" xmlns="http://www.w3.org/2000/svg">
<g clip-path="url(#clip0_401_11)">
<path d="M5.4598 7.41005V11.56H6.6498V6.05005H5.6998L4.0498 7.16005L4.5198 8.00005L5.4598 7.41005Z" fill="#D9D9D9"/>
<path d="M5.57021 14.82C5.67326 14.8104 5.77719 14.8219 5.87561 14.8539C5.97404 14.8859 6.06489 14.9377 6.14261 15.006C6.22032 15.0744 6.28325 15.1579 6.32755 15.2514C6.37185 15.3449 6.39658 15.4465 6.40021 15.55C6.40021 15.93 6.19022 16.29 5.53022 16.82L3.53021 18.39V19.39H7.67021V18.28H5.33021L6.33021 17.51C7.33021 16.81 7.61022 16.24 7.61022 15.51C7.60176 15.2606 7.5424 15.0156 7.43578 14.79C7.32916 14.5644 7.17753 14.363 6.99021 14.1981C6.8029 14.0333 6.58385 13.9085 6.34653 13.8314C6.10921 13.7544 5.85864 13.7266 5.61021 13.75C5.19346 13.7475 4.78209 13.8442 4.41002 14.032C4.03795 14.2197 3.71583 14.4933 3.47021 14.83L4.23021 15.56C4.38291 15.3431 4.58287 15.1639 4.81501 15.0357C5.04715 14.9075 5.30539 14.8337 5.57021 14.82Z" fill="#D9D9D9"/>
<path d="M6.55984 24.64C6.84371 24.5691 7.09597 24.4059 7.27698 24.176C7.45799 23.9461 7.55749 23.6626 7.55984 23.37C7.55984 22.5 6.77984 21.86 5.55984 21.86C5.15632 21.853 4.75667 21.9396 4.39229 22.1132C4.02791 22.2867 3.70874 22.5423 3.45984 22.86L4.14984 23.58C4.30954 23.3881 4.50781 23.232 4.73177 23.1217C4.95574 23.0115 5.20039 22.9496 5.44984 22.94C5.98984 22.94 6.36984 23.2 6.36984 23.6C6.36984 24 6.00984 24.22 5.36984 24.22H4.78984V25.22H5.42984C6.16984 25.22 6.49984 25.43 6.49984 25.85C6.49984 26.27 6.14984 26.53 5.49984 26.53C5.22487 26.5279 4.9533 26.469 4.7021 26.3572C4.45089 26.2453 4.22545 26.0829 4.03984 25.88L3.33984 26.66C3.61854 26.9663 3.96062 27.2081 4.34228 27.3687C4.72395 27.5293 5.13603 27.6049 5.54984 27.59C6.83984 27.59 7.67984 26.9 7.67984 25.95C7.67906 25.6342 7.56595 25.3291 7.36075 25.0891C7.15555 24.849 6.87165 24.6899 6.55984 24.64Z" fill="#D9D9D9"/>
<path d="M32.42 9C32.42 8.73478 32.3146 8.48043 32.1271 8.29289C31.9396 8.10536 31.6852 8 31.42 8H10V10H31.42C31.6852 10 31.9396 9.89464 32.1271 9.70711C32.3146 9.51957 32.42 9.26522 32.42 9Z" fill="#D9D9D9"/>
<path d="M31.42 16H10V18H31.42C31.6852 18 31.9396 17.8946 32.1271 17.7071C32.3146 17.5196 32.42 17.2652 32.42 17C32.42 16.7348 32.3146 16.4804 32.1271 16.2929C31.9396 16.1054 31.6852 16 31.42 16Z" fill="#D9D9D9"/>
<path d="M31.42 24H10V26H31.42C31.6852 26 31.9396 25.8946 32.1271 25.7071C32.3146 25.5196 32.42 25.2652 32.42 25C32.42 24.7348 32.3146 24.4804 32.1271 24.2929C31.9396 24.1054 31.6852 24 31.42 24Z" fill="#D9D9D9"/>
</g>
<defs>
<clipPath id="clip0_401_11">
<rect width="36" height="36" fill="white"/>
</clipPath>
</defs>
</svg>
